{"title":"Elysium (2013) DVDScreener","uid":8918183,"size":1444141056,"categoryP":"video","categoryS":"movies","magnet":"?xt=urn:btih:987e1cc5d1ca6c3acd8b8afdd7457f180525b1a8&amp;dn=Elysium+%282013%29+DVDScreener&amp;tr=udp%3A%2F%2Ftracker.openbittorrent.com%3A80&amp;tr=udp%3A%2F%2Fopen.demonii.com%3A1337&amp;tr=udp%3A%2F%2Ftracker.coppersurfer.tk%3A6969&amp;tr=udp%3A%2F%2Fexodus.desync.com%3A6969","seeders":7,"leechers":0,"uploader":"yfjfrj","files":-1,"time":1379194404,"description":"General\nComplete name                            : D:Elizium.2013.DVDSCR.avi\nFormat                                   : AVI\nFormat/Info                              : Audio Video Interleave\nFile size                                : 1.34 GiB\nDuration                                 : 1h 40mn\nOverall bit rate                         : 1 911 Kbps\nMovie name                               : Elizium.2013.DVDSCR.GOLIAF.TV\nDirector                                 : -=REGIS1975=-GOLIAF.TV-=\nGenre                                    : Fantasy\nWriting application                      : VirtualDubMod 1.5.10.2 (build 2540/release)\nOriginal source form/Name                : Movie\nComment                                  : DVDSCR\n\nVideo\nID                                       : 0\nFormat                                   : MPEG-4 Visual\nFormat profile                           : Advanced Simple@L5\nFormat settings, BVOP                    : 2\nFormat settings, QPel                    : No\nFormat settings, GMC                     : No warppoints\nFormat settings, Matrix                  : Default (H.263)\nMuxing mode                              : Packed bitstream\nCodec ID                                 : XVID\nCodec ID/Hint                            : XviD\nDuration                                 : 1h 40mn\nBit rate                                 : 1 509 Kbps\nWidth                                    : 720 pixels\nHeight                                   : 296 pixels\nDisplay aspect ratio                     : 2.40:1\nFrame rate                               : 29.970 fps\nColor space                              : YUV\nChroma subsampling                       : 4:2:0\nBit depth                                : 8 bits\nScan type                                : Progressive\nCompression mode                         : Lossy\nBits/(Pixel*Frame)                       : 0.236\nStream size                              : 1.06 GiB (79%)\nWriting library                          : XviD 64\n\nAudio #1\nID                                       : 1\nFormat                                   : AC-3\nFormat/Info                              : Audio Coding 3\nMode extension                           : CM (complete main)\nFormat settings, Endianness              : Big\nCodec ID                                 : 2000\nDuration                                 : 1h 40mn\nBit rate mode                            : Constant\nBit rate                                 : 192 Kbps\nChannel(s)                               : 2 channels\nChannel positions                        : Front: L R\nSampling rate                            : 48.0 KHz\nBit depth                                : 16 bits\nCompression mode                         : Lossy\nStream size                              : 138 MiB (10%)\nAlignment                                : Split accross interleaves\nInterleave, duration                     : 33 ms (1.00 video frame)\nInterleave, preload duration             : 500 ms\n\nAudio #2\nID                                       : 2\nFormat                                   : AC-3\nFormat/Info                              : Audio Coding 3\nMode extension                           : CM (complete main)\nFormat settings, Endianness              : Big\nCodec ID                                 : 2000\nDuration                                 : 1h 40mn\nBit rate mode                            : Constant\nBit rate                                 : 192 Kbps\nChannel(s)                               : 2 channels\nChannel positions                        : Front: L R\nSampling rate                            : 48.0 KHz\nBit depth                                : 16 bits\nCompression mode                         : Lossy\nStream size                              : 138 MiB (10%)\nAlignment                                : Split accross interleaves\nInterleave, duration                     : 33 ms (1.00 video frame)\nInterleave, preload duration             : 500 ms\n\nScreenshots: &lt;a href=&quot;\nhttp://img534.imageshack.us/img534/8463/bqtv.png&quot; rel=&quot;nofollow&quot; target=&quot;_NEW&quot;&gt;\nhttp://img534.imageshack.us/img534/8463/bqtv.png&lt;/a&gt; &lt;a href=&quot;\nhttp://img15.imageshack.us/img15/2971/tt5s.png&quot; rel=&quot;nofollow&quot; target=&quot;_NEW&quot;&gt;\nhttp://img15.imageshack.us/img15/2971/tt5s.png&lt;/a&gt; &lt;a href=&quot;\nhttp://img202.imageshack.us/img202/4298/mil9.png&quot; rel=&quot;nofollow&quot; target=&quot;_NEW&quot;&gt;\nhttp://img202.imageshack.us/img202/4298/mil9.png&lt;/a&gt; &lt;a href=&quot;\nhttp://img829.imageshack.us/img829/8523/sn0i.png&quot; rel=&quot;nofollow&quot; target=&quot;_NEW&quot;&gt;\nhttp://img829.imageshack.us/img829/8523/sn0i.png&lt;/a&gt; &lt;a href=&quot;\nhttp://img819.imageshack.us/img819/3450/38wl.png&quot; rel=&quot;nofollow&quot; target=&quot;_NEW&quot;&gt;\nhttp://img819.imageshack.us/img819/3450/38wl.png&lt;/a&gt; &lt;a href=&quot;\nhttp://img823.imageshack.us/img823/797/cvke.png&quot; rel=&quot;nofollow&quot; target=&quot;_NEW&quot;&gt;\nhttp://img823.imageshack.us/img823/797/cvke.png&lt;/a&gt; &lt;a href=&quot;\nhttp://img41.imageshack.us/img41/9440/3qh.png&quot; rel=&quot;nofollow&quot; target=&quot;_NEW&quot;&gt;\nhttp://img41.imageshack.us/img41/9440/3qh.png&lt;/a&gt; &lt;a href=&quot;\nhttp://img4.imageshack.us/img4/2636/zton.png&quot; rel=&quot;nofollow&quot; target=&quot;_NEW&quot;&gt;\nhttp://img4.imageshack.us/img4/2636/zton.png&lt;/a&gt; &lt;a href=&quot;\nhttp://img41.imageshack.us/img41/9272/029o.png&quot; rel=&quot;nofollow&quot; target=&quot;_NEW&quot;&gt;\nhttp://img41.imageshack.us/img41/9272/029o.png&lt;/a&gt; &lt;a href=&quot;\nhttp://img29.imageshack.us/img29/9610/x84a.png&quot; rel=&quot;nofollow&quot; target=&quot;_NEW&quot;&gt;\nhttp://img29.imageshack.us/img29/9610/x84a.png&lt;/a&gt; &lt;a href=&quot;\nhttp://img594.imageshack.us/img594/9061/czad.png&quot; rel=&quot;nofollow&quot; target=&quot;_NEW&quot;&gt;\nhttp://img594.imageshack.us/img594/9061/czad.png&lt;/a&gt; &lt;a href=&quot;\nhttp://img189.imageshack.us/img189/5728/niho.png&quot; rel=&quot;nofollow&quot; target=&quot;_NEW&quot;&gt;\nhttp://img189.imageshack.us/img189/5728/niho.png&lt;/a&gt;","torrent":{"xt":"urn:btih:987e1cc5d1ca6c3acd8b8afdd7457f180525b1a8","amp;dn":"Elysium+%282013%29+DVDScreener","amp;tr":["udp%3A%2F%2Ftracker.openbittorrent.com%3A80","udp%3A%2F%2Fopen.demonii.com%3A1337","udp%3A%2F%2Ftracker.coppersurfer.tk%3A6969","udp%3A%2F%2Fexodus.desync.com%3A6969"],"infoHash":"987e1cc5d1ca6c3acd8b8afdd7457f180525b1a8","infoHashBuffer":{"type":"Buffer","data":[152,126,28,197,209,202,108,58,205,139,138,253,215,69,127,24,5,37,177,168]},"announce":[],"urlList":[]}}